<svg xmlns="http://www.w3.org/2000/svg" xmlns:xlink="http://www.w3.org/1999/xlink" width="500" zoomAndPan="magnify" viewBox="0 0 375 374.999991" height="500" preserveAspectRatio="xMidYMid meet" version="1.0"><defs><g/><clipPath id="1ec0e27962"><path d="M 21.605469 87.613281 L 164.855469 87.613281 L 164.855469 263.113281 L 21.605469 263.113281 Z M 21.605469 87.613281 " clip-rule="nonzero"/></clipPath></defs><rect x="-37.5" width="450" fill="#ffffff" y="-37.499999" height="449.999989" fill-opacity="1"/><rect x="-37.5" width="450" fill="#edf4ed" y="-37.499999" height="449.999989" fill-opacity="1"/><g clip-path="url(#1ec0e27962)"><path fill="#ffffff" d="M 89.1875 218.140625 L 164.648438 147.503906 L 164.648438 87.738281 L 21.898438 221.757812 L 21.898438 263.15625 L 164.792969 263.15625 L 164.792969 218.140625 Z M 76.402344 87.738281 L 21.613281 87.738281 L 21.613281 132.75 L 106.808594 132.75 Z M 76.402344 87.738281 " fill-opacity="1" fill-rule="nonzero"/></g><g fill="#ffffff" fill-opacity="1"><g transform="translate(182.522745, 189.702396)"><g><path d="M 12 0.3125 C 9.945312 0.3125 8.140625 -0.125 6.578125 -1 C 5.015625 -1.875 3.804688 -3.117188 2.953125 -4.734375 C 2.109375 -6.347656 1.6875 -8.207031 1.6875 -10.3125 L 1.6875 -17.6875 C 1.6875 -19.789062 2.117188 -21.648438 2.984375 -23.265625 C 3.847656 -24.878906 5.070312 -26.125 6.65625 -27 C 8.25 -27.875 10.082031 -28.3125 12.15625 -28.3125 L 16.40625 -28.3125 C 18.40625 -28.3125 20.160156 -27.882812 21.671875 -27.03125 C 23.191406 -26.1875 24.375 -24.992188 25.21875 -23.453125 C 26.0625 -21.921875 26.484375 -20.144531 26.484375 -18.125 L 21.046875 -18.125 C 21.046875 -19.71875 20.617188 -21 19.765625 -21.96875 C 18.910156 -22.945312 17.789062 -23.4375 16.40625 -23.4375 L 12.15625 -23.4375 C 10.664062 -23.4375 9.46875 -22.882812 8.5625 -21.78125 C 7.65625 -20.675781 7.203125 -19.226562 7.203125 -17.4375 L 7.203125 -10.5625 C 7.203125 -8.769531 7.640625 -7.320312 8.515625 -6.21875 C 9.398438 -5.113281 10.5625 -4.5625 12 -4.5625 L 16.3125 -4.5625 C 17.726562 -4.5625 18.882812 -5.109375 19.78125 -6.203125 C 20.675781 -7.296875 21.125 -8.734375 21.125 -10.515625 L 26.5625 -10.515625 C 26.5625 -8.359375 26.132812 -6.457031 25.28125 -4.8125 C 24.425781 -3.175781 23.222656 -1.910156 21.671875 -1.015625 C 20.128906 -0.128906 18.34375 0.3125 16.3125 0.3125 Z M 12 0.3125 "/></g></g></g><g fill="#ffffff" fill-opacity="1"><g transform="translate(210.040016, 189.702396)"><g><path d="M 12.359375 0.3125 C 10.253906 0.3125 8.394531 -0.128906 6.78125 -1.015625 C 5.164062 -1.910156 3.910156 -3.164062 3.015625 -4.78125 C 2.128906 -6.394531 1.6875 -8.269531 1.6875 -10.40625 L 1.6875 -17.59375 C 1.6875 -19.726562 2.128906 -21.601562 3.015625 -23.21875 C 3.910156 -24.832031 5.164062 -26.082031 6.78125 -26.96875 C 8.394531 -27.863281 10.253906 -28.3125 12.359375 -28.3125 L 16.59375 -28.3125 C 18.707031 -28.3125 20.566406 -27.863281 22.171875 -26.96875 C 23.785156 -26.082031 25.039062 -24.832031 25.9375 -23.21875 C 26.832031 -21.601562 27.28125 -19.726562 27.28125 -17.59375 L 27.28125 -10.40625 C 27.28125 -8.269531 26.832031 -6.394531 25.9375 -4.78125 C 25.039062 -3.164062 23.785156 -1.910156 22.171875 -1.015625 C 20.566406 -0.128906 18.707031 0.3125 16.59375 0.3125 Z M 16.59375 -4.5625 C 18.144531 -4.5625 19.394531 -5.117188 20.34375 -6.234375 C 21.289062 -7.359375 21.765625 -8.828125 21.765625 -10.640625 L 21.765625 -17.359375 C 21.765625 -19.171875 21.289062 -20.632812 20.34375 -21.75 C 19.394531 -22.875 18.144531 -23.4375 16.59375 -23.4375 L 12.359375 -23.4375 C 10.816406 -23.4375 9.570312 -22.875 8.625 -21.75 C 7.675781 -20.632812 7.203125 -19.171875 7.203125 -17.359375 L 7.203125 -10.640625 C 7.203125 -8.828125 7.675781 -7.359375 8.625 -6.234375 C 9.570312 -5.117188 10.816406 -4.5625 12.359375 -4.5625 Z M 16.59375 -4.5625 "/></g></g></g><g fill="#ffffff" fill-opacity="1"><g transform="translate(238.997137, 189.702396)"><g><path d="M 12.234375 0.3125 C 10.265625 0.3125 8.53125 -0.101562 7.03125 -0.9375 C 5.539062 -1.78125 4.378906 -2.960938 3.546875 -4.484375 C 2.722656 -6.003906 2.3125 -7.765625 2.3125 -9.765625 L 2.3125 -28 L 7.84375 -28 L 7.84375 -9.921875 C 7.84375 -8.316406 8.25 -7.019531 9.0625 -6.03125 C 9.875 -5.050781 10.929688 -4.5625 12.234375 -4.5625 L 16.484375 -4.5625 C 17.816406 -4.5625 18.894531 -5.050781 19.71875 -6.03125 C 20.539062 -7.019531 20.953125 -8.316406 20.953125 -9.921875 L 20.953125 -28 L 26.484375 -28 L 26.484375 -9.765625 C 26.484375 -7.765625 26.066406 -6.003906 25.234375 -4.484375 C 24.410156 -2.960938 23.238281 -1.78125 21.71875 -0.9375 C 20.195312 -0.101562 18.453125 0.3125 16.484375 0.3125 Z M 12.234375 0.3125 "/></g></g></g><g fill="#ffffff" fill-opacity="1"><g transform="translate(267.794281, 189.702396)"><g><path d="M 2.484375 -28 L 7.40625 -28 L 20.84375 -8.953125 L 20.84375 -28 L 26.234375 -28 L 26.234375 0 L 21.3125 0 L 7.875 -19.046875 L 7.875 0 L 2.484375 0 Z M 2.484375 -28 "/></g></g></g><g fill="#ffffff" fill-opacity="1"><g transform="translate(296.511431, 189.702396)"><g><path d="M 9.359375 -23.203125 L 0.484375 -23.203125 L 0.484375 -28 L 23.765625 -28 L 23.765625 -23.203125 L 14.875 -23.203125 L 14.875 0 L 9.359375 0 Z M 9.359375 -23.203125 "/></g></g></g><g fill="#ffffff" fill-opacity="1"><g transform="translate(320.74902, 189.702396)"><g><path d="M 6.359375 0 C 5.210938 0 4.28125 -0.34375 3.5625 -1.03125 C 2.84375 -1.726562 2.484375 -2.640625 2.484375 -3.765625 L 2.484375 -28 L 23.84375 -28 L 23.84375 -23.203125 L 8 -23.203125 L 8 -16.71875 L 22.640625 -16.71875 L 22.640625 -11.921875 L 8 -11.921875 L 8 -4.796875 L 23.84375 -4.796875 L 23.84375 0 Z M 6.359375 0 "/></g></g></g><g fill="#ffffff" fill-opacity="1"><g transform="translate(345.866522, 189.702396)"><g><path d="M 2.484375 -28 L 17.359375 -28 C 19.785156 -28 21.738281 -27.34375 23.21875 -26.03125 C 24.695312 -24.726562 25.4375 -23.007812 25.4375 -20.875 L 25.4375 -18.078125 C 25.4375 -16.691406 25.039062 -15.484375 24.25 -14.453125 C 23.46875 -13.429688 22.332031 -12.65625 20.84375 -12.125 L 20.84375 -12.046875 C 21.695312 -11.484375 22.34375 -10.84375 22.78125 -10.125 C 23.21875 -9.40625 23.648438 -8.40625 24.078125 -7.125 L 26.3125 0 L 20.59375 0 L 18.484375 -6.640625 C 18.128906 -7.785156 17.644531 -8.640625 17.03125 -9.203125 C 16.425781 -9.765625 15.671875 -10.046875 14.765625 -10.046875 L 8 -10.046875 L 8 0 L 2.484375 0 Z M 16.3125 -14.796875 C 17.4375 -14.796875 18.316406 -15.09375 18.953125 -15.6875 C 19.597656 -16.289062 19.921875 -17.078125 19.921875 -18.046875 L 19.921875 -20.640625 C 19.921875 -21.410156 19.679688 -22.03125 19.203125 -22.5 C 18.722656 -22.96875 18.082031 -23.203125 17.28125 -23.203125 L 8 -23.203125 L 8 -14.796875 Z M 16.3125 -14.796875 "/></g></g></g><g fill="#ffffff" fill-opacity="1"><g transform="translate(208.394479, 217.53876)"><g><path d="M 5.953125 0.1875 C 5.035156 0.1875 4.222656 -0.00390625 3.515625 -0.390625 C 2.816406 -0.785156 2.269531 -1.335938 1.875 -2.046875 C 1.476562 -2.765625 1.28125 -3.59375 1.28125 -4.53125 L 2.9375 -4.53125 C 2.9375 -3.582031 3.21875 -2.8125 3.78125 -2.21875 C 4.34375 -1.625 5.082031 -1.328125 6 -1.328125 L 8.5625 -1.328125 C 9.457031 -1.328125 10.179688 -1.53125 10.734375 -1.9375 C 11.285156 -2.34375 11.5625 -2.878906 11.5625 -3.546875 L 11.5625 -5.015625 C 11.5625 -5.535156 11.359375 -5.976562 10.953125 -6.34375 C 10.546875 -6.71875 9.992188 -6.957031 9.296875 -7.0625 L 5.15625 -7.75 C 3.988281 -7.945312 3.082031 -8.359375 2.4375 -8.984375 C 1.789062 -9.617188 1.46875 -10.410156 1.46875 -11.359375 L 1.46875 -12.609375 C 1.46875 -13.722656 1.882812 -14.613281 2.71875 -15.28125 C 3.5625 -15.945312 4.671875 -16.28125 6.046875 -16.28125 L 8.640625 -16.28125 C 9.953125 -16.28125 11.003906 -15.882812 11.796875 -15.09375 C 12.597656 -14.3125 13 -13.273438 13 -11.984375 L 11.34375 -11.984375 C 11.34375 -12.828125 11.09375 -13.5 10.59375 -14 C 10.101562 -14.507812 9.453125 -14.765625 8.640625 -14.765625 L 6.046875 -14.765625 C 5.171875 -14.765625 4.472656 -14.566406 3.953125 -14.171875 C 3.429688 -13.785156 3.171875 -13.265625 3.171875 -12.609375 L 3.171875 -11.359375 C 3.171875 -10.828125 3.363281 -10.375 3.75 -10 C 4.144531 -9.632812 4.6875 -9.390625 5.375 -9.265625 L 9.5 -8.5625 C 10.695312 -8.34375 11.625 -7.929688 12.28125 -7.328125 C 12.9375 -6.722656 13.265625 -5.953125 13.265625 -5.015625 L 13.265625 -3.546875 C 13.265625 -2.421875 12.832031 -1.515625 11.96875 -0.828125 C 11.113281 -0.148438 9.992188 0.1875 8.609375 0.1875 Z M 5.953125 0.1875 "/></g></g></g><g fill="#ffffff" fill-opacity="1"><g transform="translate(227.755709, 217.53876)"><g><path d="M 1.84375 -16.09375 L 9.640625 -16.09375 C 10.835938 -16.09375 11.796875 -15.753906 12.515625 -15.078125 C 13.242188 -14.410156 13.609375 -13.523438 13.609375 -12.421875 L 13.609375 -10.046875 C 13.609375 -8.867188 13.21875 -7.914062 12.4375 -7.1875 C 11.65625 -6.457031 10.628906 -6.09375 9.359375 -6.09375 L 3.546875 -6.09375 L 3.546875 0 L 1.84375 0 Z M 9.3125 -7.609375 C 10.09375 -7.609375 10.71875 -7.832031 11.1875 -8.28125 C 11.664062 -8.738281 11.90625 -9.34375 11.90625 -10.09375 L 11.90625 -12.46875 C 11.90625 -13.09375 11.695312 -13.597656 11.28125 -13.984375 C 10.863281 -14.378906 10.300781 -14.578125 9.59375 -14.578125 L 3.546875 -14.578125 L 3.546875 -7.609375 Z M 9.3125 -7.609375 "/></g></g></g><g fill="#ffffff" fill-opacity="1"><g transform="translate(247.047966, 217.53876)"><g><path d="M 10.96875 -4.46875 L 3.90625 -4.46875 L 2.25 0 L 0.5 0 L 6.6875 -16.09375 L 7.46875 -16.09375 C 7.976562 -16.09375 8.347656 -15.789062 8.578125 -15.1875 L 12.125 -5.890625 L 12.140625 -5.890625 L 12.140625 -5.84375 L 14.375 0 L 12.625 0 Z M 4.4375 -5.890625 L 10.4375 -5.890625 L 7.453125 -13.890625 L 7.421875 -13.890625 Z M 4.4375 -5.890625 "/></g></g></g><g fill="#ffffff" fill-opacity="1"><g transform="translate(266.869046, 217.53876)"><g><path d="M 6.59375 0.1875 C 5.570312 0.1875 4.664062 -0.0546875 3.875 -0.546875 C 3.082031 -1.035156 2.46875 -1.722656 2.03125 -2.609375 C 1.59375 -3.492188 1.375 -4.507812 1.375 -5.65625 L 1.375 -10.4375 C 1.375 -11.59375 1.59375 -12.613281 2.03125 -13.5 C 2.46875 -14.382812 3.085938 -15.066406 3.890625 -15.546875 C 4.703125 -16.035156 5.632812 -16.28125 6.6875 -16.28125 L 9.125 -16.28125 C 10.125 -16.28125 11.003906 -16.066406 11.765625 -15.640625 C 12.523438 -15.210938 13.113281 -14.609375 13.53125 -13.828125 C 13.957031 -13.046875 14.171875 -12.144531 14.171875 -11.125 L 12.515625 -11.125 C 12.515625 -12.21875 12.203125 -13.097656 11.578125 -13.765625 C 10.960938 -14.429688 10.144531 -14.765625 9.125 -14.765625 L 6.6875 -14.765625 C 5.601562 -14.765625 4.726562 -14.367188 4.0625 -13.578125 C 3.40625 -12.785156 3.078125 -11.738281 3.078125 -10.4375 L 3.078125 -5.65625 C 3.078125 -4.351562 3.398438 -3.304688 4.046875 -2.515625 C 4.691406 -1.722656 5.539062 -1.328125 6.59375 -1.328125 L 9.078125 -1.328125 C 10.128906 -1.328125 10.972656 -1.695312 11.609375 -2.4375 C 12.242188 -3.175781 12.5625 -4.144531 12.5625 -5.34375 L 14.21875 -5.34375 C 14.21875 -4.25 14 -3.285156 13.5625 -2.453125 C 13.132812 -1.617188 12.535156 -0.96875 11.765625 -0.5 C 10.992188 -0.0390625 10.097656 0.1875 9.078125 0.1875 Z M 6.59375 0.1875 "/></g></g></g><g fill="#ffffff" fill-opacity="1"><g transform="translate(286.989017, 217.53876)"><g><path d="M 3.328125 0 C 2.859375 0 2.492188 -0.132812 2.234375 -0.40625 C 1.972656 -0.675781 1.84375 -1.046875 1.84375 -1.515625 L 1.84375 -16.09375 L 12.65625 -16.09375 L 12.65625 -14.625 L 3.546875 -14.625 L 3.546875 -8.96875 L 11.953125 -8.96875 L 11.953125 -7.5 L 3.546875 -7.5 L 3.546875 -1.46875 L 12.65625 -1.46875 L 12.65625 0 Z M 3.328125 0 "/></g></g></g></svg>